# xmcd
#
# Track frame offsets: 
#        150
#        11385
#        23402
#        38307
#        51505
#        66882
#        79995
#        91750
#        107202
#        121922
#        135895
#        146453
#        169443
#        192455
#        227895
#        255370
#        274153
#        289158
#        302318
#        315825
#
# Disc length: 4477 seconds
#
# Revision: 0
# Processed by: cddbd v1.5.1PL0 Copyright (c) Steve Scherf et al.
# Submitted via: ExactAudioCopy v0.95a5
#
DISCID=00117b14
DTITLE=T-Rex - Essential Collection CD2
DYEAR=1900
DGENRE=A Cappella
TTITLE0=Children of the Revolution
TTITLE1=The Soul of My Suit
TTITLE2=Dance in the Midnight
TTITLE3=Sunken Rags
TTITLE4=Think Zinc
TTITLE5=Dreamy Lady
TTITLE6=Celebrate Summer
TTITLE7=Crimson Moon
TTITLE8=Chrome Star
TTITLE9=Till Dawn
TTITLE10=Raw Ramp
TTITLE11=Spaceball Ricochet (live)
TTITLE12=Jeepster (live)
TTITLE13=Cosmic Dancer (live)
TTITLE14=Main Man (live)
TTITLE15=Ballrooms of Mars (live)
TTITLE16=Mystic Lady (live)
TTITLE17=Girl (live)
TTITLE18=Baby Strange (live)
TTITLE19=Get it On
EXTD=
EXTT0=
EXTT1=
EXTT2=
EXTT3=
EXTT4=
EXTT5=
EXTT6=
EXTT7=
EXTT8=
EXTT9=
EXTT10=
EXTT11=
EXTT12=
EXTT13=
EXTT14=
EXTT15=
EXTT16=
EXTT17=
EXTT18=
EXTT19=
PLAYORDER=
